<?xml version="1.0" encoding="UTF-8" standalone="no"?>
<!DOCTYPE svg PUBLIC "-//W3C//DTD SVG 1.1//EN"
 "http://www.w3.org/Graphics/SVG/1.1/DTD/svg11.dtd">
<!-- Generated by graphviz version 2.43.0 (0)
 -->
<!-- Title: G Pages: 1 -->
<svg width="358pt" height="405pt"
 viewBox="0.00 0.00 358.00 405.00" xmlns="http://www.w3.org/2000/svg" xmlns:xlink="http://www.w3.org/1999/xlink">
<g id="graph0" class="graph" transform="scale(1 1) rotate(0) translate(4 401)">
<title>G</title>
<polygon fill="white" stroke="transparent" points="-4,4 -4,-401 354,-401 354,4 -4,4"/>
<!-- header -->
<g id="node1" class="node">
<title>header</title>
<text text-anchor="middle" x="78.5" y="-13" font-family="Arial" font-size="20.00" fill="#000000">List is ok</text>
</g>
<!-- node_0 -->
<g id="node2" class="node">
<title>node_0</title>
<path fill="#ffffe5" stroke="#d44060" d="M12,-327.5C12,-327.5 145,-327.5 145,-327.5 151,-327.5 157,-333.5 157,-339.5 157,-339.5 157,-384.5 157,-384.5 157,-390.5 151,-396.5 145,-396.5 145,-396.5 12,-396.5 12,-396.5 6,-396.5 0,-390.5 0,-384.5 0,-384.5 0,-339.5 0,-339.5 0,-333.5 6,-327.5 12,-327.5"/>
<text text-anchor="middle" x="78.5" y="-381.3" font-family="Times,serif" font-size="14.00">ind = 0</text>
<polyline fill="none" stroke="#d44060" points="0,-373.5 157,-373.5 "/>
<text text-anchor="middle" x="78.5" y="-358.3" font-family="Times,serif" font-size="14.00">value = 0.00</text>
<polyline fill="none" stroke="#d44060" points="0,-350.5 157,-350.5 "/>
<text text-anchor="middle" x="39.5" y="-335.3" font-family="Times,serif" font-size="14.00">prev = 1</text>
<polyline fill="none" stroke="#d44060" points="79,-327.5 79,-350.5 "/>
<text text-anchor="middle" x="118" y="-335.3" font-family="Times,serif" font-size="14.00">next = 1</text>
</g>
<!-- node_1 -->
<g id="node3" class="node">
<title>node_1</title>
<path fill="#ffffe5" stroke="#d44060" d="M205,-327.5C205,-327.5 338,-327.5 338,-327.5 344,-327.5 350,-333.5 350,-339.5 350,-339.5 350,-384.5 350,-384.5 350,-390.5 344,-396.5 338,-396.5 338,-396.5 205,-396.5 205,-396.5 199,-396.5 193,-390.5 193,-384.5 193,-384.5 193,-339.5 193,-339.5 193,-333.5 199,-327.5 205,-327.5"/>
<text text-anchor="middle" x="271.5" y="-381.3" font-family="Times,serif" font-size="14.00">ind = 1</text>
<polyline fill="none" stroke="#d44060" points="193,-373.5 350,-373.5 "/>
<text text-anchor="middle" x="271.5" y="-358.3" font-family="Times,serif" font-size="14.00">value = 10.00</text>
<polyline fill="none" stroke="#d44060" points="193,-350.5 350,-350.5 "/>
<text text-anchor="middle" x="232.5" y="-335.3" font-family="Times,serif" font-size="14.00">prev = 0</text>
<polyline fill="none" stroke="#d44060" points="272,-327.5 272,-350.5 "/>
<text text-anchor="middle" x="311" y="-335.3" font-family="Times,serif" font-size="14.00">next = 0</text>
</g>
<!-- node_0&#45;&gt;node_1 -->
<!-- node_0&#45;&gt;node_1 -->
<g id="edge2" class="edge">
<title>node_0&#45;&gt;node_1</title>
<path fill="none" stroke="#5aff35" d="M157,-350.33C157,-350.33 182.76,-350.33 182.76,-350.33"/>
<polygon fill="#5aff35" stroke="#5aff35" points="182.76,-353.83 192.76,-350.33 182.76,-346.83 182.76,-353.83"/>
</g>
<!-- node_0&#45;&gt;node_1 -->
<g id="edge4" class="edge">
<title>node_0&#45;&gt;node_1</title>
<path fill="none" stroke="#b80d82" d="M157,-362C157,-362 182.76,-362 182.76,-362"/>
<polygon fill="#b80d82" stroke="#b80d82" points="182.76,-365.5 192.76,-362 182.76,-358.5 182.76,-365.5"/>
</g>
<!-- node_1&#45;&gt;node_0 -->
<g id="edge3" class="edge">
<title>node_1&#45;&gt;node_0</title>
<path fill="none" stroke="#5aff35" d="M193,-373.67C193,-373.67 167.24,-373.67 167.24,-373.67"/>
<polygon fill="#5aff35" stroke="#5aff35" points="167.24,-370.17 157.24,-373.67 167.24,-377.17 167.24,-370.17"/>
</g>
<!-- node_1&#45;&gt;node_0 -->
<g id="edge5" class="edge">
<title>node_1&#45;&gt;node_0</title>
<path fill="none" stroke="#b80d82" d="M193,-385.33C193,-385.33 167.24,-385.33 167.24,-385.33"/>
<polygon fill="#b80d82" stroke="#b80d82" points="167.24,-381.83 157.24,-385.33 167.24,-388.83 167.24,-381.83"/>
</g>
<!-- head -->
<g id="node4" class="node">
<title>head</title>
<path fill="#e5faff" stroke="#d44060" d="M50,-218C50,-218 107,-218 107,-218 113,-218 119,-224 119,-230 119,-230 119,-242 119,-242 119,-248 113,-254 107,-254 107,-254 50,-254 50,-254 44,-254 38,-248 38,-242 38,-242 38,-230 38,-230 38,-224 44,-218 50,-218"/>
<text text-anchor="middle" x="78.5" y="-232.3" font-family="Times,serif" font-size="14.00">head = 1</text>
</g>
<!-- head&#45;&gt;node_1 -->
<g id="edge6" class="edge">
<title>head&#45;&gt;node_1</title>
<path fill="none" stroke="#0d8ab8" d="M119.05,-236C168.62,-236 246,-236 246,-236 246,-236 246,-317.24 246,-317.24"/>
<polygon fill="#0d8ab8" stroke="#0d8ab8" points="242.5,-317.24 246,-327.24 249.5,-317.24 242.5,-317.24"/>
</g>
<!-- tail -->
<g id="node5" class="node">
<title>tail</title>
<path fill="#e5faff" stroke="#d44060" d="M55.5,-109C55.5,-109 101.5,-109 101.5,-109 107.5,-109 113.5,-115 113.5,-121 113.5,-121 113.5,-133 113.5,-133 113.5,-139 107.5,-145 101.5,-145 101.5,-145 55.5,-145 55.5,-145 49.5,-145 43.5,-139 43.5,-133 43.5,-133 43.5,-121 43.5,-121 43.5,-115 49.5,-109 55.5,-109"/>
<text text-anchor="middle" x="78.5" y="-123.3" font-family="Times,serif" font-size="14.00">tail = 1</text>
</g>
<!-- tail&#45;&gt;node_1 -->
<g id="edge7" class="edge">
<title>tail&#45;&gt;node_1</title>
<path fill="none" stroke="#0d8ab8" d="M113.77,-127C175.81,-127 298,-127 298,-127 298,-127 298,-317.32 298,-317.32"/>
<polygon fill="#0d8ab8" stroke="#0d8ab8" points="294.5,-317.32 298,-327.32 301.5,-317.32 294.5,-317.32"/>
</g>
</g>
</svg>
