<?xml version="1.0" encoding="UTF-8" standalone="no"?>
<!DOCTYPE svg PUBLIC "-//W3C//DTD SVG 1.1//EN"
 "http://www.w3.org/Graphics/SVG/1.1/DTD/svg11.dtd">
<!-- Generated by graphviz version 2.43.0 (0)
 -->
<!-- Title: G Pages: 1 -->
<svg width="1623pt" height="919pt"
 viewBox="0.00 0.00 1623.00 919.00" xmlns="http://www.w3.org/2000/svg" xmlns:xlink="http://www.w3.org/1999/xlink">
<g id="graph0" class="graph" transform="scale(1 1) rotate(0) translate(4 915)">
<title>G</title>
<polygon fill="white" stroke="transparent" points="-4,4 -4,-915 1619,-915 1619,4 -4,4"/>
<!-- header -->
<g id="node1" class="node">
<title>header</title>
<text text-anchor="middle" x="78.5" y="-13" font-family="Arial" font-size="20.00" fill="#000000">List is ok</text>
</g>
<!-- node_0 -->
<g id="node2" class="node">
<title>node_0</title>
<path fill="#ffffe5" stroke="#d44060" d="M12,-809.5C12,-809.5 145,-809.5 145,-809.5 151,-809.5 157,-815.5 157,-821.5 157,-821.5 157,-866.5 157,-866.5 157,-872.5 151,-878.5 145,-878.5 145,-878.5 12,-878.5 12,-878.5 6,-878.5 0,-872.5 0,-866.5 0,-866.5 0,-821.5 0,-821.5 0,-815.5 6,-809.5 12,-809.5"/>
<text text-anchor="middle" x="78.5" y="-863.3" font-family="Times,serif" font-size="14.00">ind = 0</text>
<polyline fill="none" stroke="#d44060" points="0,-855.5 157,-855.5 "/>
<text text-anchor="middle" x="78.5" y="-840.3" font-family="Times,serif" font-size="14.00">value = 0.00</text>
<polyline fill="none" stroke="#d44060" points="0,-832.5 157,-832.5 "/>
<text text-anchor="middle" x="39.5" y="-817.3" font-family="Times,serif" font-size="14.00">prev = 2</text>
<polyline fill="none" stroke="#d44060" points="79,-809.5 79,-832.5 "/>
<text text-anchor="middle" x="118" y="-817.3" font-family="Times,serif" font-size="14.00">next = 4</text>
</g>
<!-- node_1 -->
<g id="node3" class="node">
<title>node_1</title>
<path fill="#ffffe5" stroke="#d44060" d="M205,-809.5C205,-809.5 338,-809.5 338,-809.5 344,-809.5 350,-815.5 350,-821.5 350,-821.5 350,-866.5 350,-866.5 350,-872.5 344,-878.5 338,-878.5 338,-878.5 205,-878.5 205,-878.5 199,-878.5 193,-872.5 193,-866.5 193,-866.5 193,-821.5 193,-821.5 193,-815.5 199,-809.5 205,-809.5"/>
<text text-anchor="middle" x="271.5" y="-863.3" font-family="Times,serif" font-size="14.00">ind = 1</text>
<polyline fill="none" stroke="#d44060" points="193,-855.5 350,-855.5 "/>
<text text-anchor="middle" x="271.5" y="-840.3" font-family="Times,serif" font-size="14.00">value = 10.00</text>
<polyline fill="none" stroke="#d44060" points="193,-832.5 350,-832.5 "/>
<text text-anchor="middle" x="232.5" y="-817.3" font-family="Times,serif" font-size="14.00">prev = 3</text>
<polyline fill="none" stroke="#d44060" points="272,-809.5 272,-832.5 "/>
<text text-anchor="middle" x="311" y="-817.3" font-family="Times,serif" font-size="14.00">next = 2</text>
</g>
<!-- node_0&#45;&gt;node_1 -->
<!-- node_2 -->
<g id="node4" class="node">
<title>node_2</title>
<path fill="#ffffe5" stroke="#d44060" d="M398,-809.5C398,-809.5 531,-809.5 531,-809.5 537,-809.5 543,-815.5 543,-821.5 543,-821.5 543,-866.5 543,-866.5 543,-872.5 537,-878.5 531,-878.5 531,-878.5 398,-878.5 398,-878.5 392,-878.5 386,-872.5 386,-866.5 386,-866.5 386,-821.5 386,-821.5 386,-815.5 392,-809.5 398,-809.5"/>
<text text-anchor="middle" x="464.5" y="-863.3" font-family="Times,serif" font-size="14.00">ind = 2</text>
<polyline fill="none" stroke="#d44060" points="386,-855.5 543,-855.5 "/>
<text text-anchor="middle" x="464.5" y="-840.3" font-family="Times,serif" font-size="14.00">value = 50.00</text>
<polyline fill="none" stroke="#d44060" points="386,-832.5 543,-832.5 "/>
<text text-anchor="middle" x="425.5" y="-817.3" font-family="Times,serif" font-size="14.00">prev = 1</text>
<polyline fill="none" stroke="#d44060" points="465,-809.5 465,-832.5 "/>
<text text-anchor="middle" x="504" y="-817.3" font-family="Times,serif" font-size="14.00">next = 0</text>
</g>
<!-- node_0&#45;&gt;node_2 -->
<g id="edge15" class="edge">
<title>node_0&#45;&gt;node_2</title>
<path fill="none" stroke="#b80d82" d="M126,-878.52C126,-889.57 126,-899 126,-899 126,-899 491,-899 491,-899 491,-899 491,-888.52 491,-888.52"/>
<polygon fill="#b80d82" stroke="#b80d82" points="494.5,-888.52 491,-878.52 487.5,-888.52 494.5,-888.52"/>
</g>
<!-- node_4 -->
<g id="node6" class="node">
<title>node_4</title>
<path fill="#ffffe5" stroke="#d44060" d="M784,-809.5C784,-809.5 917,-809.5 917,-809.5 923,-809.5 929,-815.5 929,-821.5 929,-821.5 929,-866.5 929,-866.5 929,-872.5 923,-878.5 917,-878.5 917,-878.5 784,-878.5 784,-878.5 778,-878.5 772,-872.5 772,-866.5 772,-866.5 772,-821.5 772,-821.5 772,-815.5 778,-809.5 784,-809.5"/>
<text text-anchor="middle" x="850.5" y="-863.3" font-family="Times,serif" font-size="14.00">ind = 4</text>
<polyline fill="none" stroke="#d44060" points="772,-855.5 929,-855.5 "/>
<text text-anchor="middle" x="850.5" y="-840.3" font-family="Times,serif" font-size="14.00">value = 40.00</text>
<polyline fill="none" stroke="#d44060" points="772,-832.5 929,-832.5 "/>
<text text-anchor="middle" x="811.5" y="-817.3" font-family="Times,serif" font-size="14.00">prev = 0</text>
<polyline fill="none" stroke="#d44060" points="851,-809.5 851,-832.5 "/>
<text text-anchor="middle" x="890" y="-817.3" font-family="Times,serif" font-size="14.00">next = 5</text>
</g>
<!-- node_0&#45;&gt;node_4 -->
<g id="edge8" class="edge">
<title>node_0&#45;&gt;node_4</title>
<path fill="none" stroke="#5aff35" d="M63,-878.82C63,-893.39 63,-907 63,-907 63,-907 877,-907 877,-907 877,-907 877,-888.82 877,-888.82"/>
<polygon fill="#5aff35" stroke="#5aff35" points="880.5,-888.82 877,-878.82 873.5,-888.82 880.5,-888.82"/>
</g>
<!-- node_1&#45;&gt;node_2 -->
<!-- node_1&#45;&gt;node_2 -->
<g id="edge9" class="edge">
<title>node_1&#45;&gt;node_2</title>
<path fill="none" stroke="#5aff35" d="M350,-844C350,-844 375.76,-844 375.76,-844"/>
<polygon fill="#5aff35" stroke="#5aff35" points="375.76,-847.5 385.76,-844 375.76,-840.5 375.76,-847.5"/>
</g>
<!-- node_3 -->
<g id="node5" class="node">
<title>node_3</title>
<path fill="#ffffe5" stroke="#d44060" d="M591,-809.5C591,-809.5 724,-809.5 724,-809.5 730,-809.5 736,-815.5 736,-821.5 736,-821.5 736,-866.5 736,-866.5 736,-872.5 730,-878.5 724,-878.5 724,-878.5 591,-878.5 591,-878.5 585,-878.5 579,-872.5 579,-866.5 579,-866.5 579,-821.5 579,-821.5 579,-815.5 585,-809.5 591,-809.5"/>
<text text-anchor="middle" x="657.5" y="-863.3" font-family="Times,serif" font-size="14.00">ind = 3</text>
<polyline fill="none" stroke="#d44060" points="579,-855.5 736,-855.5 "/>
<text text-anchor="middle" x="657.5" y="-840.3" font-family="Times,serif" font-size="14.00">value = 30.00</text>
<polyline fill="none" stroke="#d44060" points="579,-832.5 736,-832.5 "/>
<text text-anchor="middle" x="618.5" y="-817.3" font-family="Times,serif" font-size="14.00">prev = 5</text>
<polyline fill="none" stroke="#d44060" points="658,-809.5 658,-832.5 "/>
<text text-anchor="middle" x="697" y="-817.3" font-family="Times,serif" font-size="14.00">next = 1</text>
</g>
<!-- node_1&#45;&gt;node_3 -->
<g id="edge16" class="edge">
<title>node_1&#45;&gt;node_3</title>
<path fill="none" stroke="#b80d82" d="M298,-878.65C298,-885.7 298,-891 298,-891 298,-891 642,-891 642,-891 642,-891 642,-888.65 642,-888.65"/>
<polygon fill="#b80d82" stroke="#b80d82" points="645.5,-888.65 642,-878.65 638.5,-888.65 645.5,-888.65"/>
</g>
<!-- node_2&#45;&gt;node_0 -->
<g id="edge10" class="edge">
<title>node_2&#45;&gt;node_0</title>
<path fill="none" stroke="#5aff35" d="M439,-878.66C439,-891.5 439,-903 439,-903 439,-903 95,-903 95,-903 95,-903 95,-888.66 95,-888.66"/>
<polygon fill="#5aff35" stroke="#5aff35" points="98.5,-888.66 95,-878.66 91.5,-888.66 98.5,-888.66"/>
</g>
<!-- node_2&#45;&gt;node_1 -->
<g id="edge17" class="edge">
<title>node_2&#45;&gt;node_1</title>
<path fill="none" stroke="#b80d82" d="M386,-861.5C386,-861.5 360.24,-861.5 360.24,-861.5"/>
<polygon fill="#b80d82" stroke="#b80d82" points="360.24,-858 350.24,-861.5 360.24,-865 360.24,-858"/>
</g>
<!-- node_2&#45;&gt;node_3 -->
<!-- node_3&#45;&gt;node_1 -->
<g id="edge11" class="edge">
<title>node_3&#45;&gt;node_1</title>
<path fill="none" stroke="#5aff35" d="M611,-878.58C611,-887.68 611,-895 611,-895 611,-895 246,-895 246,-895 246,-895 246,-888.58 246,-888.58"/>
<polygon fill="#5aff35" stroke="#5aff35" points="249.5,-888.58 246,-878.58 242.5,-888.58 249.5,-888.58"/>
</g>
<!-- node_3&#45;&gt;node_4 -->
<!-- node_5 -->
<g id="node7" class="node">
<title>node_5</title>
<path fill="#ffffe5" stroke="#d44060" d="M977,-809.5C977,-809.5 1110,-809.5 1110,-809.5 1116,-809.5 1122,-815.5 1122,-821.5 1122,-821.5 1122,-866.5 1122,-866.5 1122,-872.5 1116,-878.5 1110,-878.5 1110,-878.5 977,-878.5 977,-878.5 971,-878.5 965,-872.5 965,-866.5 965,-866.5 965,-821.5 965,-821.5 965,-815.5 971,-809.5 977,-809.5"/>
<text text-anchor="middle" x="1043.5" y="-863.3" font-family="Times,serif" font-size="14.00">ind = 5</text>
<polyline fill="none" stroke="#d44060" points="965,-855.5 1122,-855.5 "/>
<text text-anchor="middle" x="1043.5" y="-840.3" font-family="Times,serif" font-size="14.00">value = 60.00</text>
<polyline fill="none" stroke="#d44060" points="965,-832.5 1122,-832.5 "/>
<text text-anchor="middle" x="1004.5" y="-817.3" font-family="Times,serif" font-size="14.00">prev = 4</text>
<polyline fill="none" stroke="#d44060" points="1044,-809.5 1044,-832.5 "/>
<text text-anchor="middle" x="1083" y="-817.3" font-family="Times,serif" font-size="14.00">next = 3</text>
</g>
<!-- node_3&#45;&gt;node_5 -->
<g id="edge18" class="edge">
<title>node_3&#45;&gt;node_5</title>
<path fill="none" stroke="#b80d82" d="M705,-878.53C705,-881.26 705,-883 705,-883 705,-883 1070,-883 1070,-883 1070,-883 1070,-882.55 1070,-882.55"/>
<polygon fill="#b80d82" stroke="#b80d82" points="1073.5,-888.53 1070,-878.53 1066.5,-888.53 1073.5,-888.53"/>
</g>
<!-- node_4&#45;&gt;node_0 -->
<g id="edge19" class="edge">
<title>node_4&#45;&gt;node_0</title>
<path fill="none" stroke="#b80d82" d="M825,-878.68C825,-895.03 825,-911 825,-911 825,-911 32,-911 32,-911 32,-911 32,-888.68 32,-888.68"/>
<polygon fill="#b80d82" stroke="#b80d82" points="35.5,-888.68 32,-878.68 28.5,-888.68 35.5,-888.68"/>
</g>
<!-- node_4&#45;&gt;node_5 -->
<!-- node_4&#45;&gt;node_5 -->
<g id="edge12" class="edge">
<title>node_4&#45;&gt;node_5</title>
<path fill="none" stroke="#5aff35" d="M929,-844C929,-844 954.76,-844 954.76,-844"/>
<polygon fill="#5aff35" stroke="#5aff35" points="954.76,-847.5 964.76,-844 954.76,-840.5 954.76,-847.5"/>
</g>
<!-- node_5&#45;&gt;node_3 -->
<g id="edge13" class="edge">
<title>node_5&#45;&gt;node_3</title>
<path fill="none" stroke="#5aff35" d="M1018,-878.71C1018,-883.6 1018,-887 1018,-887 1018,-887 674,-887 674,-887 674,-887 674,-886.17 674,-886.17"/>
<polygon fill="#5aff35" stroke="#5aff35" points="677.5,-888.71 674,-878.71 670.5,-888.71 677.5,-888.71"/>
</g>
<!-- node_5&#45;&gt;node_4 -->
<g id="edge20" class="edge">
<title>node_5&#45;&gt;node_4</title>
<path fill="none" stroke="#b80d82" d="M965,-861.5C965,-861.5 939.24,-861.5 939.24,-861.5"/>
<polygon fill="#b80d82" stroke="#b80d82" points="939.24,-858 929.24,-861.5 939.24,-865 939.24,-858"/>
</g>
<!-- node_6 -->
<g id="node8" class="node">
<title>node_6</title>
<path fill="#d6d5ff" stroke="#d44060" d="M1170,-809.5C1170,-809.5 1325,-809.5 1325,-809.5 1331,-809.5 1337,-815.5 1337,-821.5 1337,-821.5 1337,-866.5 1337,-866.5 1337,-872.5 1331,-878.5 1325,-878.5 1325,-878.5 1170,-878.5 1170,-878.5 1164,-878.5 1158,-872.5 1158,-866.5 1158,-866.5 1158,-821.5 1158,-821.5 1158,-815.5 1164,-809.5 1170,-809.5"/>
<text text-anchor="middle" x="1247.5" y="-863.3" font-family="Times,serif" font-size="14.00">ind = 6</text>
<polyline fill="none" stroke="#d44060" points="1158,-855.5 1337,-855.5 "/>
<text text-anchor="middle" x="1247.5" y="-840.3" font-family="Times,serif" font-size="14.00">value = PZN</text>
<polyline fill="none" stroke="#d44060" points="1158,-832.5 1337,-832.5 "/>
<text text-anchor="middle" x="1208.5" y="-817.3" font-family="Times,serif" font-size="14.00">prev = PZN</text>
<polyline fill="none" stroke="#d44060" points="1259,-809.5 1259,-832.5 "/>
<text text-anchor="middle" x="1298" y="-817.3" font-family="Times,serif" font-size="14.00">next = 7</text>
</g>
<!-- node_5&#45;&gt;node_6 -->
<!-- node_7 -->
<g id="node9" class="node">
<title>node_7</title>
<path fill="#d6d5ff" stroke="#d44060" d="M1385,-809.5C1385,-809.5 1603,-809.5 1603,-809.5 1609,-809.5 1615,-815.5 1615,-821.5 1615,-821.5 1615,-866.5 1615,-866.5 1615,-872.5 1609,-878.5 1603,-878.5 1603,-878.5 1385,-878.5 1385,-878.5 1379,-878.5 1373,-872.5 1373,-866.5 1373,-866.5 1373,-821.5 1373,-821.5 1373,-815.5 1379,-809.5 1385,-809.5"/>
<text text-anchor="middle" x="1494" y="-863.3" font-family="Times,serif" font-size="14.00">ind = 7</text>
<polyline fill="none" stroke="#d44060" points="1373,-855.5 1615,-855.5 "/>
<text text-anchor="middle" x="1494" y="-840.3" font-family="Times,serif" font-size="14.00">value = PZN</text>
<polyline fill="none" stroke="#d44060" points="1373,-832.5 1615,-832.5 "/>
<text text-anchor="middle" x="1423.5" y="-817.3" font-family="Times,serif" font-size="14.00">prev = PZN</text>
<polyline fill="none" stroke="#d44060" points="1474,-809.5 1474,-832.5 "/>
<text text-anchor="middle" x="1544.5" y="-817.3" font-family="Times,serif" font-size="14.00">next = 12500670</text>
</g>
<!-- node_6&#45;&gt;node_7 -->
<!-- node_6&#45;&gt;node_7 -->
<g id="edge14" class="edge">
<title>node_6&#45;&gt;node_7</title>
<path fill="none" stroke="#7009ac" d="M1337.19,-855.67C1337.19,-855.67 1362.71,-855.67 1362.71,-855.67"/>
<polygon fill="#7009ac" stroke="#7009ac" points="1362.71,-859.17 1372.71,-855.67 1362.71,-852.17 1362.71,-859.17"/>
</g>
<!-- head -->
<g id="node10" class="node">
<title>head</title>
<path fill="#e5faff" stroke="#d44060" d="M50,-464C50,-464 107,-464 107,-464 113,-464 119,-470 119,-476 119,-476 119,-488 119,-488 119,-494 113,-500 107,-500 107,-500 50,-500 50,-500 44,-500 38,-494 38,-488 38,-488 38,-476 38,-476 38,-470 44,-464 50,-464"/>
<text text-anchor="middle" x="78.5" y="-478.3" font-family="Times,serif" font-size="14.00">head = 4</text>
</g>
<!-- head&#45;&gt;node_4 -->
<g id="edge21" class="edge">
<title>head&#45;&gt;node_4</title>
<path fill="none" stroke="#0d8ab8" d="M119.22,-482C278.54,-482 851,-482 851,-482 851,-482 851,-799.29 851,-799.29"/>
<polygon fill="#0d8ab8" stroke="#0d8ab8" points="847.5,-799.29 851,-809.29 854.5,-799.29 847.5,-799.29"/>
</g>
<!-- tail -->
<g id="node11" class="node">
<title>tail</title>
<path fill="#e5faff" stroke="#d44060" d="M55.5,-109C55.5,-109 101.5,-109 101.5,-109 107.5,-109 113.5,-115 113.5,-121 113.5,-121 113.5,-133 113.5,-133 113.5,-139 107.5,-145 101.5,-145 101.5,-145 55.5,-145 55.5,-145 49.5,-145 43.5,-139 43.5,-133 43.5,-133 43.5,-121 43.5,-121 43.5,-115 49.5,-109 55.5,-109"/>
<text text-anchor="middle" x="78.5" y="-123.3" font-family="Times,serif" font-size="14.00">tail = 2</text>
</g>
<!-- tail&#45;&gt;node_2 -->
<g id="edge22" class="edge">
<title>tail&#45;&gt;node_2</title>
<path fill="none" stroke="#0d8ab8" d="M113.82,-127C209.24,-127 465,-127 465,-127 465,-127 465,-799.42 465,-799.42"/>
<polygon fill="#0d8ab8" stroke="#0d8ab8" points="461.5,-799.42 465,-809.42 468.5,-799.42 461.5,-799.42"/>
</g>
</g>
</svg>
