<?xml version="1.0" encoding="UTF-8" standalone="no"?>
<!DOCTYPE svg PUBLIC "-//W3C//DTD SVG 1.1//EN"
 "http://www.w3.org/Graphics/SVG/1.1/DTD/svg11.dtd">
<!-- Generated by graphviz version 2.43.0 (0)
 -->
<!-- Title: G Pages: 1 -->
<svg width="829pt" height="547pt"
 viewBox="0.00 0.00 829.00 547.00" xmlns="http://www.w3.org/2000/svg" xmlns:xlink="http://www.w3.org/1999/xlink">
<g id="graph0" class="graph" transform="scale(1 1) rotate(0) translate(4 543)">
<title>G</title>
<polygon fill="white" stroke="transparent" points="-4,4 -4,-543 825,-543 825,4 -4,4"/>
<!-- header -->
<g id="node1" class="node">
<title>header</title>
<text text-anchor="middle" x="78.5" y="-13" font-family="Arial" font-size="20.00" fill="#000000">List is ok</text>
</g>
<!-- node_0 -->
<g id="node2" class="node">
<title>node_0</title>
<path fill="#ffffe5" stroke="#d44060" d="M12,-445.5C12,-445.5 145,-445.5 145,-445.5 151,-445.5 157,-451.5 157,-457.5 157,-457.5 157,-502.5 157,-502.5 157,-508.5 151,-514.5 145,-514.5 145,-514.5 12,-514.5 12,-514.5 6,-514.5 0,-508.5 0,-502.5 0,-502.5 0,-457.5 0,-457.5 0,-451.5 6,-445.5 12,-445.5"/>
<text text-anchor="middle" x="78.5" y="-499.3" font-family="Times,serif" font-size="14.00">ind = 0</text>
<polyline fill="none" stroke="#d44060" points="0,-491.5 157,-491.5 "/>
<text text-anchor="middle" x="78.5" y="-476.3" font-family="Times,serif" font-size="14.00">value = 0.00</text>
<polyline fill="none" stroke="#d44060" points="0,-468.5 157,-468.5 "/>
<text text-anchor="middle" x="39.5" y="-453.3" font-family="Times,serif" font-size="14.00">prev = 2</text>
<polyline fill="none" stroke="#d44060" points="79,-445.5 79,-468.5 "/>
<text text-anchor="middle" x="118" y="-453.3" font-family="Times,serif" font-size="14.00">next = 1</text>
</g>
<!-- node_1 -->
<g id="node3" class="node">
<title>node_1</title>
<path fill="#ffffe5" stroke="#d44060" d="M205,-445.5C205,-445.5 338,-445.5 338,-445.5 344,-445.5 350,-451.5 350,-457.5 350,-457.5 350,-502.5 350,-502.5 350,-508.5 344,-514.5 338,-514.5 338,-514.5 205,-514.5 205,-514.5 199,-514.5 193,-508.5 193,-502.5 193,-502.5 193,-457.5 193,-457.5 193,-451.5 199,-445.5 205,-445.5"/>
<text text-anchor="middle" x="271.5" y="-499.3" font-family="Times,serif" font-size="14.00">ind = 1</text>
<polyline fill="none" stroke="#d44060" points="193,-491.5 350,-491.5 "/>
<text text-anchor="middle" x="271.5" y="-476.3" font-family="Times,serif" font-size="14.00">value = 10.00</text>
<polyline fill="none" stroke="#d44060" points="193,-468.5 350,-468.5 "/>
<text text-anchor="middle" x="232.5" y="-453.3" font-family="Times,serif" font-size="14.00">prev = 0</text>
<polyline fill="none" stroke="#d44060" points="272,-445.5 272,-468.5 "/>
<text text-anchor="middle" x="311" y="-453.3" font-family="Times,serif" font-size="14.00">next = 2</text>
</g>
<!-- node_0&#45;&gt;node_1 -->
<!-- node_0&#45;&gt;node_1 -->
<g id="edge4" class="edge">
<title>node_0&#45;&gt;node_1</title>
<path fill="none" stroke="#5aff35" d="M157,-480C157,-480 182.76,-480 182.76,-480"/>
<polygon fill="#5aff35" stroke="#5aff35" points="182.76,-483.5 192.76,-480 182.76,-476.5 182.76,-483.5"/>
</g>
<!-- node_2 -->
<g id="node4" class="node">
<title>node_2</title>
<path fill="#ffffe5" stroke="#d44060" d="M398,-445.5C398,-445.5 531,-445.5 531,-445.5 537,-445.5 543,-451.5 543,-457.5 543,-457.5 543,-502.5 543,-502.5 543,-508.5 537,-514.5 531,-514.5 531,-514.5 398,-514.5 398,-514.5 392,-514.5 386,-508.5 386,-502.5 386,-502.5 386,-457.5 386,-457.5 386,-451.5 392,-445.5 398,-445.5"/>
<text text-anchor="middle" x="464.5" y="-499.3" font-family="Times,serif" font-size="14.00">ind = 2</text>
<polyline fill="none" stroke="#d44060" points="386,-491.5 543,-491.5 "/>
<text text-anchor="middle" x="464.5" y="-476.3" font-family="Times,serif" font-size="14.00">value = 20.00</text>
<polyline fill="none" stroke="#d44060" points="386,-468.5 543,-468.5 "/>
<text text-anchor="middle" x="425.5" y="-453.3" font-family="Times,serif" font-size="14.00">prev = 1</text>
<polyline fill="none" stroke="#d44060" points="465,-445.5 465,-468.5 "/>
<text text-anchor="middle" x="504" y="-453.3" font-family="Times,serif" font-size="14.00">next = 0</text>
</g>
<!-- node_0&#45;&gt;node_2 -->
<g id="edge7" class="edge">
<title>node_0&#45;&gt;node_2</title>
<path fill="none" stroke="#b80d82" d="M105,-514.65C105,-521.7 105,-527 105,-527 105,-527 491,-527 491,-527 491,-527 491,-524.65 491,-524.65"/>
<polygon fill="#b80d82" stroke="#b80d82" points="494.5,-524.65 491,-514.65 487.5,-524.65 494.5,-524.65"/>
</g>
<!-- node_1&#45;&gt;node_0 -->
<g id="edge8" class="edge">
<title>node_1&#45;&gt;node_0</title>
<path fill="none" stroke="#b80d82" d="M193,-497.5C193,-497.5 167.24,-497.5 167.24,-497.5"/>
<polygon fill="#b80d82" stroke="#b80d82" points="167.24,-494 157.24,-497.5 167.24,-501 167.24,-494"/>
</g>
<!-- node_1&#45;&gt;node_2 -->
<!-- node_1&#45;&gt;node_2 -->
<g id="edge5" class="edge">
<title>node_1&#45;&gt;node_2</title>
<path fill="none" stroke="#5aff35" d="M350,-480C350,-480 375.76,-480 375.76,-480"/>
<polygon fill="#5aff35" stroke="#5aff35" points="375.76,-483.5 385.76,-480 375.76,-476.5 375.76,-483.5"/>
</g>
<!-- node_2&#45;&gt;node_0 -->
<g id="edge6" class="edge">
<title>node_2&#45;&gt;node_0</title>
<path fill="none" stroke="#5aff35" d="M439,-514.66C439,-527.5 439,-539 439,-539 439,-539 53,-539 53,-539 53,-539 53,-524.66 53,-524.66"/>
<polygon fill="#5aff35" stroke="#5aff35" points="56.5,-524.66 53,-514.66 49.5,-524.66 56.5,-524.66"/>
</g>
<!-- node_2&#45;&gt;node_1 -->
<g id="edge9" class="edge">
<title>node_2&#45;&gt;node_1</title>
<path fill="none" stroke="#b80d82" d="M386,-497.5C386,-497.5 360.24,-497.5 360.24,-497.5"/>
<polygon fill="#b80d82" stroke="#b80d82" points="360.24,-494 350.24,-497.5 360.24,-501 360.24,-494"/>
</g>
<!-- node_3 -->
<g id="node5" class="node">
<title>node_3</title>
<path fill="#d6d5ff" stroke="#d44060" d="M591,-445.5C591,-445.5 809,-445.5 809,-445.5 815,-445.5 821,-451.5 821,-457.5 821,-457.5 821,-502.5 821,-502.5 821,-508.5 815,-514.5 809,-514.5 809,-514.5 591,-514.5 591,-514.5 585,-514.5 579,-508.5 579,-502.5 579,-502.5 579,-457.5 579,-457.5 579,-451.5 585,-445.5 591,-445.5"/>
<text text-anchor="middle" x="700" y="-499.3" font-family="Times,serif" font-size="14.00">ind = 3</text>
<polyline fill="none" stroke="#d44060" points="579,-491.5 821,-491.5 "/>
<text text-anchor="middle" x="700" y="-476.3" font-family="Times,serif" font-size="14.00">value = PZN</text>
<polyline fill="none" stroke="#d44060" points="579,-468.5 821,-468.5 "/>
<text text-anchor="middle" x="629.5" y="-453.3" font-family="Times,serif" font-size="14.00">prev = PZN</text>
<polyline fill="none" stroke="#d44060" points="680,-445.5 680,-468.5 "/>
<text text-anchor="middle" x="750.5" y="-453.3" font-family="Times,serif" font-size="14.00">next = 12500670</text>
</g>
<!-- node_2&#45;&gt;node_3 -->
<!-- head -->
<g id="node6" class="node">
<title>head</title>
<path fill="#e5faff" stroke="#d44060" d="M50,-109C50,-109 107,-109 107,-109 113,-109 119,-115 119,-121 119,-121 119,-133 119,-133 119,-139 113,-145 107,-145 107,-145 50,-145 50,-145 44,-145 38,-139 38,-133 38,-133 38,-121 38,-121 38,-115 44,-109 50,-109"/>
<text text-anchor="middle" x="78.5" y="-123.3" font-family="Times,serif" font-size="14.00">head = 1</text>
</g>
<!-- head&#45;&gt;node_1 -->
<g id="edge10" class="edge">
<title>head&#45;&gt;node_1</title>
<path fill="none" stroke="#0d8ab8" d="M119.06,-127C175.8,-127 272,-127 272,-127 272,-127 272,-435.19 272,-435.19"/>
<polygon fill="#0d8ab8" stroke="#0d8ab8" points="268.5,-435.19 272,-445.19 275.5,-435.19 268.5,-435.19"/>
</g>
<!-- tail -->
<g id="node7" class="node">
<title>tail</title>
<path fill="#e5faff" stroke="#d44060" d="M55.5,-218C55.5,-218 101.5,-218 101.5,-218 107.5,-218 113.5,-224 113.5,-230 113.5,-230 113.5,-242 113.5,-242 113.5,-248 107.5,-254 101.5,-254 101.5,-254 55.5,-254 55.5,-254 49.5,-254 43.5,-248 43.5,-242 43.5,-242 43.5,-230 43.5,-230 43.5,-224 49.5,-218 55.5,-218"/>
<text text-anchor="middle" x="78.5" y="-232.3" font-family="Times,serif" font-size="14.00">tail = 2</text>
</g>
<!-- tail&#45;&gt;node_2 -->
<g id="edge11" class="edge">
<title>tail&#45;&gt;node_2</title>
<path fill="none" stroke="#0d8ab8" d="M113.82,-236C209.24,-236 465,-236 465,-236 465,-236 465,-435.3 465,-435.3"/>
<polygon fill="#0d8ab8" stroke="#0d8ab8" points="461.5,-435.3 465,-445.3 468.5,-435.3 461.5,-435.3"/>
</g>
</g>
</svg>
