<?xml version="1.0" encoding="UTF-8" standalone="no"?>
<!DOCTYPE svg PUBLIC "-//W3C//DTD SVG 1.1//EN"
 "http://www.w3.org/Graphics/SVG/1.1/DTD/svg11.dtd">
<!-- Generated by graphviz version 2.43.0 (0)
 -->
<!-- Title: G Pages: 1 -->
<svg width="1667pt" height="553pt"
 viewBox="0.00 0.00 1667.00 553.00" xmlns="http://www.w3.org/2000/svg" xmlns:xlink="http://www.w3.org/1999/xlink">
<g id="graph0" class="graph" transform="scale(1 1) rotate(0) translate(4 549)">
<title>G</title>
<polygon fill="white" stroke="transparent" points="-4,4 -4,-549 1663,-549 1663,4 -4,4"/>
<!-- header -->
<g id="node1" class="node">
<title>header</title>
<text text-anchor="middle" x="78.5" y="-13" font-family="Arial" font-size="20.00" fill="#000000">List is ok</text>
</g>
<!-- node_0 -->
<g id="node2" class="node">
<title>node_0</title>
<path fill="#ffffe5" stroke="#d44060" d="M12,-445.5C12,-445.5 145,-445.5 145,-445.5 151,-445.5 157,-451.5 157,-457.5 157,-457.5 157,-502.5 157,-502.5 157,-508.5 151,-514.5 145,-514.5 145,-514.5 12,-514.5 12,-514.5 6,-514.5 0,-508.5 0,-502.5 0,-502.5 0,-457.5 0,-457.5 0,-451.5 6,-445.5 12,-445.5"/>
<text text-anchor="middle" x="78.5" y="-499.3" font-family="Times,serif" font-size="14.00">ind = 0</text>
<polyline fill="none" stroke="#d44060" points="0,-491.5 157,-491.5 "/>
<text text-anchor="middle" x="78.5" y="-476.3" font-family="Times,serif" font-size="14.00">value = 0.00</text>
<polyline fill="none" stroke="#d44060" points="0,-468.5 157,-468.5 "/>
<text text-anchor="middle" x="39.5" y="-453.3" font-family="Times,serif" font-size="14.00">prev = 1</text>
<polyline fill="none" stroke="#d44060" points="79,-445.5 79,-468.5 "/>
<text text-anchor="middle" x="118" y="-453.3" font-family="Times,serif" font-size="14.00">next = 4</text>
</g>
<!-- node_1 -->
<g id="node3" class="node">
<title>node_1</title>
<path fill="#ffffe5" stroke="#d44060" d="M205,-445.5C205,-445.5 338,-445.5 338,-445.5 344,-445.5 350,-451.5 350,-457.5 350,-457.5 350,-502.5 350,-502.5 350,-508.5 344,-514.5 338,-514.5 338,-514.5 205,-514.5 205,-514.5 199,-514.5 193,-508.5 193,-502.5 193,-502.5 193,-457.5 193,-457.5 193,-451.5 199,-445.5 205,-445.5"/>
<text text-anchor="middle" x="271.5" y="-499.3" font-family="Times,serif" font-size="14.00">ind = 1</text>
<polyline fill="none" stroke="#d44060" points="193,-491.5 350,-491.5 "/>
<text text-anchor="middle" x="271.5" y="-476.3" font-family="Times,serif" font-size="14.00">value = 10.00</text>
<polyline fill="none" stroke="#d44060" points="193,-468.5 350,-468.5 "/>
<text text-anchor="middle" x="232.5" y="-453.3" font-family="Times,serif" font-size="14.00">prev = 3</text>
<polyline fill="none" stroke="#d44060" points="272,-445.5 272,-468.5 "/>
<text text-anchor="middle" x="311" y="-453.3" font-family="Times,serif" font-size="14.00">next = 0</text>
</g>
<!-- node_0&#45;&gt;node_1 -->
<!-- node_0&#45;&gt;node_1 -->
<g id="edge15" class="edge">
<title>node_0&#45;&gt;node_1</title>
<path fill="none" stroke="#b80d82" d="M157,-480C157,-480 182.76,-480 182.76,-480"/>
<polygon fill="#b80d82" stroke="#b80d82" points="182.76,-483.5 192.76,-480 182.76,-476.5 182.76,-483.5"/>
</g>
<!-- node_4 -->
<g id="node6" class="node">
<title>node_4</title>
<path fill="#ffffe5" stroke="#d44060" d="M806,-445.5C806,-445.5 939,-445.5 939,-445.5 945,-445.5 951,-451.5 951,-457.5 951,-457.5 951,-502.5 951,-502.5 951,-508.5 945,-514.5 939,-514.5 939,-514.5 806,-514.5 806,-514.5 800,-514.5 794,-508.5 794,-502.5 794,-502.5 794,-457.5 794,-457.5 794,-451.5 800,-445.5 806,-445.5"/>
<text text-anchor="middle" x="872.5" y="-499.3" font-family="Times,serif" font-size="14.00">ind = 4</text>
<polyline fill="none" stroke="#d44060" points="794,-491.5 951,-491.5 "/>
<text text-anchor="middle" x="872.5" y="-476.3" font-family="Times,serif" font-size="14.00">value = 40.00</text>
<polyline fill="none" stroke="#d44060" points="794,-468.5 951,-468.5 "/>
<text text-anchor="middle" x="833.5" y="-453.3" font-family="Times,serif" font-size="14.00">prev = 0</text>
<polyline fill="none" stroke="#d44060" points="873,-445.5 873,-468.5 "/>
<text text-anchor="middle" x="912" y="-453.3" font-family="Times,serif" font-size="14.00">next = 3</text>
</g>
<!-- node_0&#45;&gt;node_4 -->
<g id="edge8" class="edge">
<title>node_0&#45;&gt;node_4</title>
<path fill="none" stroke="#5aff35" d="M105,-514.66C105,-527.5 105,-539 105,-539 105,-539 899,-539 899,-539 899,-539 899,-524.66 899,-524.66"/>
<polygon fill="#5aff35" stroke="#5aff35" points="902.5,-524.66 899,-514.66 895.5,-524.66 902.5,-524.66"/>
</g>
<!-- node_1&#45;&gt;node_0 -->
<g id="edge9" class="edge">
<title>node_1&#45;&gt;node_0</title>
<path fill="none" stroke="#5aff35" d="M193,-497.5C193,-497.5 167.24,-497.5 167.24,-497.5"/>
<polygon fill="#5aff35" stroke="#5aff35" points="167.24,-494 157.24,-497.5 167.24,-501 167.24,-494"/>
</g>
<!-- node_2 -->
<g id="node4" class="node">
<title>node_2</title>
<path fill="#d6d5ff" stroke="#d44060" d="M398,-445.5C398,-445.5 553,-445.5 553,-445.5 559,-445.5 565,-451.5 565,-457.5 565,-457.5 565,-502.5 565,-502.5 565,-508.5 559,-514.5 553,-514.5 553,-514.5 398,-514.5 398,-514.5 392,-514.5 386,-508.5 386,-502.5 386,-502.5 386,-457.5 386,-457.5 386,-451.5 392,-445.5 398,-445.5"/>
<text text-anchor="middle" x="475.5" y="-499.3" font-family="Times,serif" font-size="14.00">ind = 2</text>
<polyline fill="none" stroke="#d44060" points="386,-491.5 565,-491.5 "/>
<text text-anchor="middle" x="475.5" y="-476.3" font-family="Times,serif" font-size="14.00">value = PZN</text>
<polyline fill="none" stroke="#d44060" points="386,-468.5 565,-468.5 "/>
<text text-anchor="middle" x="436.5" y="-453.3" font-family="Times,serif" font-size="14.00">prev = PZN</text>
<polyline fill="none" stroke="#d44060" points="487,-445.5 487,-468.5 "/>
<text text-anchor="middle" x="526" y="-453.3" font-family="Times,serif" font-size="14.00">next = 5</text>
</g>
<!-- node_1&#45;&gt;node_2 -->
<!-- node_3 -->
<g id="node5" class="node">
<title>node_3</title>
<path fill="#ffffe5" stroke="#d44060" d="M613,-445.5C613,-445.5 746,-445.5 746,-445.5 752,-445.5 758,-451.5 758,-457.5 758,-457.5 758,-502.5 758,-502.5 758,-508.5 752,-514.5 746,-514.5 746,-514.5 613,-514.5 613,-514.5 607,-514.5 601,-508.5 601,-502.5 601,-502.5 601,-457.5 601,-457.5 601,-451.5 607,-445.5 613,-445.5"/>
<text text-anchor="middle" x="679.5" y="-499.3" font-family="Times,serif" font-size="14.00">ind = 3</text>
<polyline fill="none" stroke="#d44060" points="601,-491.5 758,-491.5 "/>
<text text-anchor="middle" x="679.5" y="-476.3" font-family="Times,serif" font-size="14.00">value = 30.00</text>
<polyline fill="none" stroke="#d44060" points="601,-468.5 758,-468.5 "/>
<text text-anchor="middle" x="640.5" y="-453.3" font-family="Times,serif" font-size="14.00">prev = 4</text>
<polyline fill="none" stroke="#d44060" points="680,-445.5 680,-468.5 "/>
<text text-anchor="middle" x="719" y="-453.3" font-family="Times,serif" font-size="14.00">next = 1</text>
</g>
<!-- node_1&#45;&gt;node_3 -->
<g id="edge16" class="edge">
<title>node_1&#45;&gt;node_3</title>
<path fill="none" stroke="#b80d82" d="M298,-514.65C298,-521.7 298,-527 298,-527 298,-527 706,-527 706,-527 706,-527 706,-524.65 706,-524.65"/>
<polygon fill="#b80d82" stroke="#b80d82" points="709.5,-524.65 706,-514.65 702.5,-524.65 709.5,-524.65"/>
</g>
<!-- node_2&#45;&gt;node_3 -->
<!-- node_5 -->
<g id="node7" class="node">
<title>node_5</title>
<path fill="#d6d5ff" stroke="#d44060" d="M999,-445.5C999,-445.5 1154,-445.5 1154,-445.5 1160,-445.5 1166,-451.5 1166,-457.5 1166,-457.5 1166,-502.5 1166,-502.5 1166,-508.5 1160,-514.5 1154,-514.5 1154,-514.5 999,-514.5 999,-514.5 993,-514.5 987,-508.5 987,-502.5 987,-502.5 987,-457.5 987,-457.5 987,-451.5 993,-445.5 999,-445.5"/>
<text text-anchor="middle" x="1076.5" y="-499.3" font-family="Times,serif" font-size="14.00">ind = 5</text>
<polyline fill="none" stroke="#d44060" points="987,-491.5 1166,-491.5 "/>
<text text-anchor="middle" x="1076.5" y="-476.3" font-family="Times,serif" font-size="14.00">value = PZN</text>
<polyline fill="none" stroke="#d44060" points="987,-468.5 1166,-468.5 "/>
<text text-anchor="middle" x="1037.5" y="-453.3" font-family="Times,serif" font-size="14.00">prev = PZN</text>
<polyline fill="none" stroke="#d44060" points="1088,-445.5 1088,-468.5 "/>
<text text-anchor="middle" x="1127" y="-453.3" font-family="Times,serif" font-size="14.00">next = 6</text>
</g>
<!-- node_2&#45;&gt;node_5 -->
<g id="edge12" class="edge">
<title>node_2&#45;&gt;node_5</title>
<path fill="none" stroke="#7009ac" d="M476,-514.59C476,-518.44 476,-521 476,-521 476,-521 1077,-521 1077,-521 1077,-521 1077,-520.36 1077,-520.36"/>
<polygon fill="#7009ac" stroke="#7009ac" points="1080.5,-524.59 1077,-514.59 1073.5,-524.59 1080.5,-524.59"/>
</g>
<!-- node_3&#45;&gt;node_1 -->
<g id="edge10" class="edge">
<title>node_3&#45;&gt;node_1</title>
<path fill="none" stroke="#5aff35" d="M654,-514.76C654,-524.75 654,-533 654,-533 654,-533 246,-533 246,-533 246,-533 246,-524.76 246,-524.76"/>
<polygon fill="#5aff35" stroke="#5aff35" points="249.5,-524.76 246,-514.76 242.5,-524.76 249.5,-524.76"/>
</g>
<!-- node_3&#45;&gt;node_4 -->
<!-- node_3&#45;&gt;node_4 -->
<g id="edge17" class="edge">
<title>node_3&#45;&gt;node_4</title>
<path fill="none" stroke="#b80d82" d="M758,-480C758,-480 783.76,-480 783.76,-480"/>
<polygon fill="#b80d82" stroke="#b80d82" points="783.76,-483.5 793.76,-480 783.76,-476.5 783.76,-483.5"/>
</g>
<!-- node_4&#45;&gt;node_0 -->
<g id="edge18" class="edge">
<title>node_4&#45;&gt;node_0</title>
<path fill="none" stroke="#b80d82" d="M847,-514.78C847,-530.24 847,-545 847,-545 847,-545 53,-545 53,-545 53,-545 53,-524.78 53,-524.78"/>
<polygon fill="#b80d82" stroke="#b80d82" points="56.5,-524.78 53,-514.78 49.5,-524.78 56.5,-524.78"/>
</g>
<!-- node_4&#45;&gt;node_3 -->
<g id="edge11" class="edge">
<title>node_4&#45;&gt;node_3</title>
<path fill="none" stroke="#5aff35" d="M794,-497.5C794,-497.5 768.24,-497.5 768.24,-497.5"/>
<polygon fill="#5aff35" stroke="#5aff35" points="768.24,-494 758.24,-497.5 768.24,-501 768.24,-494"/>
</g>
<!-- node_4&#45;&gt;node_5 -->
<!-- node_6 -->
<g id="node8" class="node">
<title>node_6</title>
<path fill="#d6d5ff" stroke="#d44060" d="M1214,-445.5C1214,-445.5 1369,-445.5 1369,-445.5 1375,-445.5 1381,-451.5 1381,-457.5 1381,-457.5 1381,-502.5 1381,-502.5 1381,-508.5 1375,-514.5 1369,-514.5 1369,-514.5 1214,-514.5 1214,-514.5 1208,-514.5 1202,-508.5 1202,-502.5 1202,-502.5 1202,-457.5 1202,-457.5 1202,-451.5 1208,-445.5 1214,-445.5"/>
<text text-anchor="middle" x="1291.5" y="-499.3" font-family="Times,serif" font-size="14.00">ind = 6</text>
<polyline fill="none" stroke="#d44060" points="1202,-491.5 1381,-491.5 "/>
<text text-anchor="middle" x="1291.5" y="-476.3" font-family="Times,serif" font-size="14.00">value = PZN</text>
<polyline fill="none" stroke="#d44060" points="1202,-468.5 1381,-468.5 "/>
<text text-anchor="middle" x="1252.5" y="-453.3" font-family="Times,serif" font-size="14.00">prev = PZN</text>
<polyline fill="none" stroke="#d44060" points="1303,-445.5 1303,-468.5 "/>
<text text-anchor="middle" x="1342" y="-453.3" font-family="Times,serif" font-size="14.00">next = 7</text>
</g>
<!-- node_5&#45;&gt;node_6 -->
<!-- node_5&#45;&gt;node_6 -->
<g id="edge13" class="edge">
<title>node_5&#45;&gt;node_6</title>
<path fill="none" stroke="#7009ac" d="M1166.12,-491.67C1166.12,-491.67 1191.68,-491.67 1191.68,-491.67"/>
<polygon fill="#7009ac" stroke="#7009ac" points="1191.68,-495.17 1201.68,-491.67 1191.68,-488.17 1191.68,-495.17"/>
</g>
<!-- node_7 -->
<g id="node9" class="node">
<title>node_7</title>
<path fill="#d6d5ff" stroke="#d44060" d="M1429,-445.5C1429,-445.5 1647,-445.5 1647,-445.5 1653,-445.5 1659,-451.5 1659,-457.5 1659,-457.5 1659,-502.5 1659,-502.5 1659,-508.5 1653,-514.5 1647,-514.5 1647,-514.5 1429,-514.5 1429,-514.5 1423,-514.5 1417,-508.5 1417,-502.5 1417,-502.5 1417,-457.5 1417,-457.5 1417,-451.5 1423,-445.5 1429,-445.5"/>
<text text-anchor="middle" x="1538" y="-499.3" font-family="Times,serif" font-size="14.00">ind = 7</text>
<polyline fill="none" stroke="#d44060" points="1417,-491.5 1659,-491.5 "/>
<text text-anchor="middle" x="1538" y="-476.3" font-family="Times,serif" font-size="14.00">value = PZN</text>
<polyline fill="none" stroke="#d44060" points="1417,-468.5 1659,-468.5 "/>
<text text-anchor="middle" x="1467.5" y="-453.3" font-family="Times,serif" font-size="14.00">prev = PZN</text>
<polyline fill="none" stroke="#d44060" points="1518,-445.5 1518,-468.5 "/>
<text text-anchor="middle" x="1588.5" y="-453.3" font-family="Times,serif" font-size="14.00">next = 12500670</text>
</g>
<!-- node_6&#45;&gt;node_7 -->
<!-- node_6&#45;&gt;node_7 -->
<g id="edge14" class="edge">
<title>node_6&#45;&gt;node_7</title>
<path fill="none" stroke="#7009ac" d="M1381.19,-491.67C1381.19,-491.67 1406.71,-491.67 1406.71,-491.67"/>
<polygon fill="#7009ac" stroke="#7009ac" points="1406.71,-495.17 1416.71,-491.67 1406.71,-488.17 1406.71,-495.17"/>
</g>
<!-- head -->
<g id="node10" class="node">
<title>head</title>
<path fill="#e5faff" stroke="#d44060" d="M50,-218C50,-218 107,-218 107,-218 113,-218 119,-224 119,-230 119,-230 119,-242 119,-242 119,-248 113,-254 107,-254 107,-254 50,-254 50,-254 44,-254 38,-248 38,-242 38,-242 38,-230 38,-230 38,-224 44,-218 50,-218"/>
<text text-anchor="middle" x="78.5" y="-232.3" font-family="Times,serif" font-size="14.00">head = 4</text>
</g>
<!-- head&#45;&gt;node_4 -->
<g id="edge19" class="edge">
<title>head&#45;&gt;node_4</title>
<path fill="none" stroke="#0d8ab8" d="M119.27,-236C281.56,-236 873,-236 873,-236 873,-236 873,-435.3 873,-435.3"/>
<polygon fill="#0d8ab8" stroke="#0d8ab8" points="869.5,-435.3 873,-445.3 876.5,-435.3 869.5,-435.3"/>
</g>
<!-- tail -->
<g id="node11" class="node">
<title>tail</title>
<path fill="#e5faff" stroke="#d44060" d="M55.5,-109C55.5,-109 101.5,-109 101.5,-109 107.5,-109 113.5,-115 113.5,-121 113.5,-121 113.5,-133 113.5,-133 113.5,-139 107.5,-145 101.5,-145 101.5,-145 55.5,-145 55.5,-145 49.5,-145 43.5,-139 43.5,-133 43.5,-133 43.5,-121 43.5,-121 43.5,-115 49.5,-109 55.5,-109"/>
<text text-anchor="middle" x="78.5" y="-123.3" font-family="Times,serif" font-size="14.00">tail = 1</text>
</g>
<!-- tail&#45;&gt;node_1 -->
<g id="edge20" class="edge">
<title>tail&#45;&gt;node_1</title>
<path fill="none" stroke="#0d8ab8" d="M113.54,-127C169.3,-127 272,-127 272,-127 272,-127 272,-435.19 272,-435.19"/>
<polygon fill="#0d8ab8" stroke="#0d8ab8" points="268.5,-435.19 272,-445.19 275.5,-435.19 268.5,-435.19"/>
</g>
</g>
</svg>
