<?xml version="1.0" encoding="UTF-8" standalone="no"?>
<!DOCTYPE svg PUBLIC "-//W3C//DTD SVG 1.1//EN"
 "http://www.w3.org/Graphics/SVG/1.1/DTD/svg11.dtd">
<!-- Generated by graphviz version 2.43.0 (0)
 -->
<!-- Title: G Pages: 1 -->
<svg width="213pt" height="441pt"
 viewBox="0.00 0.00 213.00 441.00" xmlns="http://www.w3.org/2000/svg" xmlns:xlink="http://www.w3.org/1999/xlink">
<g id="graph0" class="graph" transform="scale(1 1) rotate(0) translate(4 437)">
<title>G</title>
<polygon fill="white" stroke="transparent" points="-4,4 -4,-437 209,-437 209,4 -4,4"/>
<!-- header -->
<g id="node1" class="node">
<title>header</title>
<text text-anchor="middle" x="102.5" y="-13" font-family="Arial" font-size="20.00" fill="#000000">List is ok</text>
</g>
<!-- node_0 -->
<g id="node2" class="node">
<title>node_0</title>
<path fill="#ffffe5" stroke="#d44060" d="M36,-327.5C36,-327.5 169,-327.5 169,-327.5 175,-327.5 181,-333.5 181,-339.5 181,-339.5 181,-384.5 181,-384.5 181,-390.5 175,-396.5 169,-396.5 169,-396.5 36,-396.5 36,-396.5 30,-396.5 24,-390.5 24,-384.5 24,-384.5 24,-339.5 24,-339.5 24,-333.5 30,-327.5 36,-327.5"/>
<text text-anchor="middle" x="102.5" y="-381.3" font-family="Times,serif" font-size="14.00">ind = 0</text>
<polyline fill="none" stroke="#d44060" points="24,-373.5 181,-373.5 "/>
<text text-anchor="middle" x="102.5" y="-358.3" font-family="Times,serif" font-size="14.00">value = 0.00</text>
<polyline fill="none" stroke="#d44060" points="24,-350.5 181,-350.5 "/>
<text text-anchor="middle" x="63.5" y="-335.3" font-family="Times,serif" font-size="14.00">prev = 0</text>
<polyline fill="none" stroke="#d44060" points="103,-327.5 103,-350.5 "/>
<text text-anchor="middle" x="142" y="-335.3" font-family="Times,serif" font-size="14.00">next = 0</text>
</g>
<!-- node_0&#45;&gt;node_0 -->
<g id="edge1" class="edge">
<title>node_0&#45;&gt;node_0</title>
<path fill="none" stroke="#5aff35" d="M23.83,-373.67C16.65,-373.67 12,-373.67 12,-373.67 12,-373.67 12,-409 12,-409 12,-409 192,-409 192,-409 192,-409 192,-373.67 192,-373.67 192,-373.67 190.9,-373.67 190.9,-373.67"/>
<polygon fill="#5aff35" stroke="#5aff35" points="191.03,-370.17 181.03,-373.67 191.03,-377.17 191.03,-370.17"/>
</g>
<!-- node_0&#45;&gt;node_0 -->
<g id="edge2" class="edge">
<title>node_0&#45;&gt;node_0</title>
<path fill="none" stroke="#b80d82" d="M23.77,-350.33C10.01,-350.33 0,-350.33 0,-350.33 0,-350.33 0,-421 0,-421 0,-421 205,-421 205,-421 205,-421 205,-350.33 205,-350.33 205,-350.33 191.23,-350.33 191.23,-350.33"/>
<polygon fill="#b80d82" stroke="#b80d82" points="191.23,-346.83 181.23,-350.33 191.23,-353.83 191.23,-346.83"/>
</g>
<!-- head -->
<g id="node3" class="node">
<title>head</title>
<path fill="#e5faff" stroke="#d44060" d="M74,-218C74,-218 131,-218 131,-218 137,-218 143,-224 143,-230 143,-230 143,-242 143,-242 143,-248 137,-254 131,-254 131,-254 74,-254 74,-254 68,-254 62,-248 62,-242 62,-242 62,-230 62,-230 62,-224 68,-218 74,-218"/>
<text text-anchor="middle" x="102.5" y="-232.3" font-family="Times,serif" font-size="14.00">head = 0</text>
</g>
<!-- head&#45;&gt;node_0 -->
<g id="edge3" class="edge">
<title>head&#45;&gt;node_0</title>
<path fill="none" stroke="#0d8ab8" d="M103,-254.05C103,-254.05 103,-317.33 103,-317.33"/>
<polygon fill="#0d8ab8" stroke="#0d8ab8" points="99.5,-317.33 103,-327.33 106.5,-317.33 99.5,-317.33"/>
</g>
<!-- tail -->
<g id="node4" class="node">
<title>tail</title>
<path fill="#e5faff" stroke="#d44060" d="M79.5,-109C79.5,-109 125.5,-109 125.5,-109 131.5,-109 137.5,-115 137.5,-121 137.5,-121 137.5,-133 137.5,-133 137.5,-139 131.5,-145 125.5,-145 125.5,-145 79.5,-145 79.5,-145 73.5,-145 67.5,-139 67.5,-133 67.5,-133 67.5,-121 67.5,-121 67.5,-115 73.5,-109 79.5,-109"/>
<text text-anchor="middle" x="102.5" y="-123.3" font-family="Times,serif" font-size="14.00">tail = 0</text>
</g>
<!-- tail&#45;&gt;node_0 -->
<g id="edge4" class="edge">
<title>tail&#45;&gt;node_0</title>
<path fill="none" stroke="#0d8ab8" d="M67.23,-127C53.05,-127 40,-127 40,-127 40,-127 40,-317.32 40,-317.32"/>
<polygon fill="#0d8ab8" stroke="#0d8ab8" points="36.5,-317.32 40,-327.32 43.5,-317.32 36.5,-317.32"/>
</g>
</g>
</svg>
